<svg xmlns="http://www.w3.org/2000/svg" width="24" height="24" viewBox="0 0 24 24">
  <path fill="#BD1F1A" fill-rule="evenodd" d="M31.9518167,60 L39.6352947,52.316522 C40.121127,51.8306897 40.1214237,51.045068 39.63705,50.5606943 L37.4393057,48.36295 C36.9556324,47.8792767 36.1688211,47.8793622 35.683478,48.3647053 L28,56.0481833 L20.316522,48.3647053 C19.8306897,47.878873 19.045068,47.8785763 18.5606943,48.36295 L16.36295,50.5606943 C15.8792767,51.0443676 15.8793622,51.8311789 16.3647053,52.316522 L24.0481833,60 L16.3647053,67.683478 C15.878873,68.1693103 15.8785763,68.954932 16.36295,69.4393057 L18.5606943,71.63705 C19.0443676,72.1207233 19.8311789,72.1206378 20.316522,71.6352947 L28,63.9518167 L35.683478,71.6352947 C36.1693103,72.121127 36.954932,72.1214237 37.4393057,71.63705 L39.63705,69.4393057 C40.1207233,68.9556324 40.1206378,68.1688211 39.6352947,67.683478 L31.9518167,60 L31.9518167,60 Z" transform="translate(-16 -48)"/>
</svg>
