<svg xmlns="http://www.w3.org/2000/svg" width="27" height="24" viewBox="0 0 27 24">
  <g fill="#DFAA00" fill-rule="evenodd">
    <path d="M23.8964786,23.9045455 L3.04807208,23.9045455 C1.82549221,23.9045455 0.841330519,23.4182727 0.348013636,22.5692727 C-0.145028571,21.7216364 -0.0774584416,20.6318182 0.533968831,19.581 L10.9578974,1.65381818 C11.569874,0.602727273 12.4861909,0 13.47255,0 C14.4591838,0 15.3755006,0.603 15.9866532,1.65409091 L26.4100325,19.5815455 C27.0217344,20.6326364 27.0895792,21.7219091 26.596537,22.5698182 C26.1032201,23.4182727 25.1190584,23.9045455 23.8964786,23.9045455 Z M13.47255,2.17581818 C13.3294442,2.17581818 13.0833351,2.35090909 12.8559039,2.74227273 L2.43170065,20.6691818 C2.20399481,21.0602727 2.17432987,21.3594545 2.24574545,21.4824545 C2.31716104,21.6046364 2.59293506,21.7287273 3.04807208,21.7287273 L23.8964786,21.7287273 C24.3516156,21.7287273 24.6271149,21.6046364 24.6988052,21.4819091 C24.7702208,21.3594545 24.7400065,21.0605455 24.5125753,20.6691818 L14.0886468,2.742 C13.8614903,2.35090909 13.6151065,2.17581818 13.47255,2.17581818 Z"/>
    <path d="M12.1716877 14.2895455C12.2293695 14.8838182 12.3263299 15.3207273 12.4686117 15.6259091 12.6471506 16.0099091 12.9784091 16.2128182 13.4272286 16.2128182 13.8664344 16.2128182 14.1998903 16.0071818 14.392163 15.6182727 14.5484532 15.3008182 14.6470617 14.8699091 14.6921084 14.3042727L15.0783019 9.90790909C15.1208766 9.49636364 15.142576 9.08290909 15.142576 8.67954545 15.142576 7.95872727 15.0472636 7.41354545 14.8503214 7.01236364 14.6921084 6.69027273 14.3353052 6.30681818 13.5354506 6.30681818 13.0212584 6.30681818 12.5979838 6.47945455 12.2774377 6.81981818 11.9618357 7.155 11.8017 7.61509091 11.8017 8.18890909 11.8017 8.55872727 11.8291675 9.16881818 11.8832786 10.0039091L12.1716877 14.2895455zM13.4634857 17.1531818C13.0012071 17.1531818 12.6048506 17.3154545 12.2845792 17.6326364 11.9640331 17.9506364 11.8017 18.342 11.8017 18.7941818 11.8017 19.3093636 11.9755695 19.7203636 12.318639 20.0157273 12.648524 20.3007273 13.0396617 20.4441818 13.4813396 20.4441818 13.9180734 20.4441818 14.3056403 20.2982727 14.6333279 20.0089091 14.9709039 19.7102727 15.142576 19.3022727 15.142576 18.7939091 15.142576 18.3400909 14.9766721 17.9481818 14.6481604 17.6296364 14.3223955 17.3138182 13.9235669 17.1531818 13.4634857 17.1531818z"/>
  </g>
</svg>
